<?xml version="1.0" encoding="iso-8859-1"?>
<svg fill="#000000" version="1.1" id="Layer_1" xmlns="http://www.w3.org/2000/svg" xmlns:xlink="http://www.w3.org/1999/xlink" 
	 viewBox="0 0 469.333 469.333" xml:space="preserve">
<g>
	<g>
		<path d="M458.667,282.667V202.56c0-27.733-21.227-58.56-51.627-58.56H106.667v-25.28c0-27.2-23.467-48.64-53.653-49.387h-1.067
			c-0.32,0-0.747,0-1.067,0C21.76,70.08,0,90.987,0,118.72v227.947c0,5.867,4.8,10.667,10.667,10.667v32
			c0,5.867,4.8,10.667,10.667,10.667H64c5.867,0,10.667-4.8,10.667-10.667v-32h320v32c0,5.867,4.8,10.667,10.667,10.667H448
			c5.867,0,10.667-4.8,10.667-10.667v-32c5.867,0,10.667-4.8,10.667-10.667v-53.333
			C469.333,287.467,464.533,282.667,458.667,282.667z M106.667,165.333H407.04c17.067,0,30.293,20.053,30.293,37.227v80.107H106.667
			V165.333z M21.333,118.72c0-16.427,12.587-27.84,30.613-28.053c16.533,0.213,33.387,10.667,33.387,28.053v163.947h-64V118.72z
			 M53.333,378.667H32v-21.333h21.333V378.667z M437.333,378.667H416v-21.333h21.333V378.667z M448,336H21.333v-32H448V336z"/>
	</g>
</g>
</svg>