<?xml version="1.0" encoding="iso-8859-1"?>
<svg fill="#000000" version="1.1" id="Capa_1" xmlns="http://www.w3.org/2000/svg" xmlns:xlink="http://www.w3.org/1999/xlink" 
	 viewBox="0 0 490 490" xml:space="preserve">
<g>
	<path d="M18.318,81.108h47.119v369.982c0,21.458,17.466,38.909,38.924,38.909h281.277c21.458,0,38.924-17.451,38.924-38.909V81.108
		h47.119V65.796H343.993V0H146.007v65.796H18.318V81.108z M409.25,451.091c0,13.01-10.587,23.597-23.612,23.597H104.361
		c-13.025,0-23.612-10.587-23.612-23.597V81.108H409.25V451.091z M161.32,15.313H328.68v50.483H161.32V15.313z"/>
	<path d="M245,396.345l91.411-111.33h-83.755V171.862h-15.313v113.154h-83.755L245,396.345z M245,372.21l-59.022-71.882h118.044
		L245,372.21z"/>
</g>
</svg>